<?xml version="1.0" encoding="UTF-8" standalone="no" ?>
<!DOCTYPE svg PUBLIC "-//W3C//DTD SVG 1.1//EN" "http://www.w3.org/Graphics/SVG/1.1/DTD/svg11.dtd">
<svg xmlns="http://www.w3.org/2000/svg" xmlns:xlink="http://www.w3.org/1999/xlink" version="1.1" width="1080" height="1080" viewBox="0 0 1080 1080" xml:space="preserve">
<desc>Created with Fabric.js 5.2.4</desc>
<defs>
</defs>
<g transform="matrix(1 0 0 1 540 540)" id="53d9c72b-3cd9-49f2-b31f-a934abd8eefe"  >
</g>
<g transform="matrix(1 0 0 1 540 540)" id="455d3baf-fe7c-4b8b-a2b9-0154b855ce9a"  >
<rect style="stroke: none; stroke-width: 1; stroke-dasharray: none; stroke-linecap: butt; stroke-dashoffset: 0; stroke-linejoin: miter; stroke-miterlimit: 4; fill: rgb(255,255,255); fill-rule: nonzero; opacity: 1; visibility: hidden;" vector-effect="non-scaling-stroke"  x="-540" y="-540" rx="0" ry="0" width="1080" height="1080" />
</g>
<g transform="matrix(17.08 0 0 17.08 432.51 491.78)"  >
<path style="stroke: rgb(0,0,0); stroke-width: 1; stroke-dasharray: none; stroke-linecap: butt; stroke-dashoffset: 0; stroke-linejoin: miter; stroke-miterlimit: 4; fill: rgb(136,13,0); fill-rule: nonzero; opacity: 1;" vector-effect="non-scaling-stroke"  transform=" translate(-26.85, -12.6)" d="M 33.3 16.4 C 33.099999999999994 17.099999999999998 32.8 17.799999999999997 32.3 18.4 C 31.799999999999997 19 31.099999999999998 19.5 30.299999999999997 19.799999999999997 C 29.4 20.199999999999996 28.299999999999997 20.299999999999997 26.9 20.299999999999997 C 25.5 20.299999999999997 24.4 20.099999999999998 23.5 19.799999999999997 C 22.6 19.4 22 18.999999999999996 21.5 18.4 C 21 17.799999999999997 20.7 17.2 20.5 16.4 C 20.3 15.7 20.2 14.999999999999998 20.2 14.2 L 20.2 6.199999999999999 C 20.2 5.999999999999999 20.2 5.799999999999999 20.3 5.699999999999999 C 20.400000000000002 5.499999999999999 20.5 5.3999999999999995 20.6 5.299999999999999 C 20.9 5.2 21 5.1 21.2 5 C 21.4 4.9 21.5 4.9 21.7 4.9 L 21.9 4.9 C 22.099999999999998 4.9 22.2 4.9 22.4 5 C 22.599999999999998 5.1 22.7 5.2 22.799999999999997 5.3 C 22.9 5.3999999999999995 22.999999999999996 5.6 23.099999999999998 5.7 C 23.2 5.9 23.2 6 23.2 6.2 L 23.2 14.2 C 23.2 14.7 23.3 15.1 23.4 15.5 C 23.5 15.9 23.7 16.2 24 16.5 C 24.3 16.8 24.7 17 25.1 17.2 C 25.6 17.4 26.200000000000003 17.4 26.900000000000002 17.4 C 27.6 17.4 28.200000000000003 17.299999999999997 28.700000000000003 17.2 C 29.200000000000003 17 29.500000000000004 16.8 29.800000000000004 16.5 C 30.100000000000005 16.2 30.300000000000004 15.9 30.400000000000006 15.5 C 30.500000000000007 15.1 30.600000000000005 14.7 30.600000000000005 14.2 L 30.600000000000005 6.199999999999999 C 30.600000000000005 5.999999999999999 30.600000000000005 5.799999999999999 30.700000000000006 5.699999999999999 C 30.800000000000008 5.499999999999999 30.900000000000006 5.3999999999999995 31.000000000000007 5.299999999999999 C 31.10000000000001 5.199999999999999 31.300000000000008 5.099999999999999 31.400000000000006 4.999999999999999 C 31.600000000000005 4.8999999999999995 31.700000000000006 4.8999999999999995 31.900000000000006 4.8999999999999995 L 32.10000000000001 4.8999999999999995 C 32.30000000000001 4.8999999999999995 32.400000000000006 4.8999999999999995 32.60000000000001 4.999999999999999 C 32.80000000000001 5.099999999999999 32.900000000000006 5.199999999999999 33.00000000000001 5.299999999999999 C 33.10000000000001 5.399999999999999 33.20000000000001 5.599999999999999 33.300000000000004 5.699999999999999 C 33.400000000000006 5.8999999999999995 33.400000000000006 5.999999999999999 33.400000000000006 6.199999999999999 L 33.400000000000006 14.2 C 33.6 14.9 33.5 15.7 33.3 16.4" stroke-linecap="round" />
</g>
<g transform="matrix(17.08 0 0 17.08 676.59 489.22)"  >
<path style="stroke: rgb(0,0,0); stroke-width: 1; stroke-dasharray: none; stroke-linecap: butt; stroke-dashoffset: 0; stroke-linejoin: miter; stroke-miterlimit: 4; fill: rgb(136,13,0); fill-rule: nonzero; opacity: 1;" vector-effect="non-scaling-stroke"  transform=" translate(-41.15, -12.45)" d="M 47.4 6.3 C 47.4 6.7 47.3 7 47 7.3 C 46.7 7.6 46.4 7.7 46 7.7 L 42.5 7.7 L 42.5 18.6 C 42.5 19 42.4 19.3 42.1 19.6 C 41.800000000000004 19.900000000000002 41.5 20 41.1 20 L 40.9 20 C 40.6 20 40.199999999999996 19.9 40 19.6 C 39.7 19.3 39.6 19 39.6 18.6 L 39.6 7.8 L 36.2 7.8 C 35.800000000000004 7.8 35.5 7.7 35.2 7.3999999999999995 C 34.900000000000006 7.1 34.800000000000004 6.8 34.800000000000004 6.3999999999999995 C 34.800000000000004 6.199999999999999 34.800000000000004 5.999999999999999 34.900000000000006 5.8 C 35.00000000000001 5.6 35.10000000000001 5.5 35.2 5.3 C 35.300000000000004 5.2 35.5 5.1 35.7 5 C 35.900000000000006 4.9 36.1 4.9 36.300000000000004 4.9 L 46.10000000000001 4.9 C 46.30000000000001 4.9 46.50000000000001 4.9 46.70000000000001 5 C 46.90000000000001 5.1 47.00000000000001 5.2 47.20000000000001 5.3 C 47.30000000000001 5.3999999999999995 47.40000000000001 5.6 47.50000000000001 5.8 C 47.4 6 47.4 6.2 47.4 6.3" stroke-linecap="round" />
</g>
<g transform="matrix(17.08 0 0 17.08 915.62 490.07)"  >
<path style="stroke: rgb(0,0,0); stroke-width: 1; stroke-dasharray: none; stroke-linecap: butt; stroke-dashoffset: 0; stroke-linejoin: miter; stroke-miterlimit: 4; fill: rgb(136,13,0); fill-rule: nonzero; opacity: 1;" vector-effect="non-scaling-stroke"  transform=" translate(-55.15, -12.5)" d="M 61.4 19.7 C 61.1 20 60.8 20.099999999999998 60.4 20.099999999999998 L 60 20.099999999999998 C 59.5 20.099999999999998 59.1 19.9 58.8 19.499999999999996 C 58.099999999999994 18.699999999999996 57.5 17.899999999999995 56.9 17.099999999999998 C 56.3 16.299999999999997 55.699999999999996 15.599999999999998 55.1 14.799999999999997 C 54.5 13.999999999999996 53.9 13.299999999999997 53.300000000000004 12.499999999999996 C 52.7 11.699999999999996 52.00000000000001 10.899999999999997 51.400000000000006 10.099999999999996 L 51.400000000000006 18.699999999999996 C 51.400000000000006 19.099999999999994 51.300000000000004 19.399999999999995 51.00000000000001 19.699999999999996 C 50.70000000000001 19.999999999999996 50.400000000000006 20.099999999999994 50.00000000000001 20.099999999999994 L 49.800000000000004 20.099999999999994 C 49.400000000000006 20.099999999999994 49.1 19.999999999999993 48.800000000000004 19.699999999999996 C 48.50000000000001 19.399999999999995 48.400000000000006 19.099999999999994 48.400000000000006 18.699999999999996 L 48.400000000000006 6.4 C 48.400000000000006 6 48.50000000000001 5.6000000000000005 48.800000000000004 5.300000000000001 C 49.1 5.000000000000001 49.400000000000006 4.9 49.800000000000004 4.9 L 50.300000000000004 4.9 C 50.50000000000001 4.9 50.7 5 50.900000000000006 5.1000000000000005 C 51.10000000000001 5.2 51.300000000000004 5.300000000000001 51.400000000000006 5.500000000000001 C 52.00000000000001 6.300000000000001 52.60000000000001 7.100000000000001 53.2 7.800000000000001 C 53.800000000000004 8.600000000000001 54.400000000000006 9.3 55 10.100000000000001 C 55.6 10.900000000000002 56.2 11.600000000000001 56.8 12.400000000000002 C 57.4 13.200000000000003 58 14.000000000000002 58.699999999999996 14.800000000000002 L 58.699999999999996 6.2 C 58.699999999999996 6 58.699999999999996 5.8 58.8 5.7 C 58.9 5.5 59 5.4 59.099999999999994 5.3 C 59.4 5.1 59.6 5 59.8 5 C 60 4.9 60.099999999999994 4.9 60.3 4.9 L 60.5 4.9 C 60.9 4.9 61.2 5 61.5 5.300000000000001 C 61.8 5.6000000000000005 61.9 5.9 61.9 6.300000000000001 L 61.9 18.700000000000003 C 61.8 19 61.7 19.4 61.4 19.7" stroke-linecap="round" />
</g>
<g transform="matrix(17.08 0 0 17.08 539.29 707.73)"  >
<polygon style="stroke: rgb(0,0,0); stroke-width: 1; stroke-dasharray: none; stroke-linecap: butt; stroke-dashoffset: 0; stroke-linejoin: miter; stroke-miterlimit: 4; fill: rgb(136,13,0); fill-rule: nonzero; opacity: 1;" vector-effect="non-scaling-stroke"  points="-28.7,-3.65 -28.7,-1.55 -28.7,1.55 -28.7,3.65 28.7,3.65 28.7,1.55 28.7,-1.55 28.7,-3.65 " />
</g>
<g transform="matrix(17.08 0 0 17.08 151.55 706.87)"  >
<path style="stroke: none; stroke-width: 1; stroke-dasharray: none; stroke-linecap: butt; stroke-dashoffset: 0; stroke-linejoin: miter; stroke-miterlimit: 4; fill: rgb(255,255,255); fill-rule: nonzero; opacity: 1;" vector-effect="non-scaling-stroke"  transform=" translate(-10.4, -25.2)" d="M 11.2 26.1 L 9.7 26.1 L 9.399999999999999 26.8 L 8.7 26.8 L 10.1 23.6 L 10.7 23.6 L 12.1 26.8 L 11.5 26.8 L 11.2 26.1 z M 11.1 25.6 L 10.5 24.200000000000003 L 9.9 25.6 L 11.1 25.6 z" stroke-linecap="round" />
</g>
<g transform="matrix(17.08 0 0 17.08 240.33 706.87)"  >
<polygon style="stroke: none; stroke-width: 1; stroke-dasharray: none; stroke-linecap: butt; stroke-dashoffset: 0; stroke-linejoin: miter; stroke-miterlimit: 4; fill: rgb(255,255,255); fill-rule: nonzero; opacity: 1;" vector-effect="non-scaling-stroke"  points="1.7,-1.6 0.3,1.6 -0.3,1.6 -1.7,-1.6 -1,-1.6 0,0.9 1.1,-1.6 " />
</g>
<g transform="matrix(17.08 0 0 17.08 327.41 706.87)"  >
<polygon style="stroke: none; stroke-width: 1; stroke-dasharray: none; stroke-linecap: butt; stroke-dashoffset: 0; stroke-linejoin: miter; stroke-miterlimit: 4; fill: rgb(255,255,255); fill-rule: nonzero; opacity: 1;" vector-effect="non-scaling-stroke"  points="1.2,1.1 1.2,1.6 -1.2,1.6 -1.2,-1.6 1.1,-1.6 1.1,-1.1 -0.6,-1.1 -0.6,-0.2 0.9,-0.2 0.9,0.2 -0.6,0.2 -0.6,1.1 " />
</g>
<g transform="matrix(17.08 0 0 17.08 409.35 706.87)"  >
<polygon style="stroke: none; stroke-width: 1; stroke-dasharray: none; stroke-linecap: butt; stroke-dashoffset: 0; stroke-linejoin: miter; stroke-miterlimit: 4; fill: rgb(255,255,255); fill-rule: nonzero; opacity: 1;" vector-effect="non-scaling-stroke"  points="-1.1,-1.6 -0.6,-1.6 -0.6,1.1 1.1,1.1 1.1,1.6 -1.1,1.6 " />
</g>
<g transform="matrix(17.08 0 0 17.08 486.18 706.87)"  >
<polygon style="stroke: none; stroke-width: 1; stroke-dasharray: none; stroke-linecap: butt; stroke-dashoffset: 0; stroke-linejoin: miter; stroke-miterlimit: 4; fill: rgb(255,255,255); fill-rule: nonzero; opacity: 1;" vector-effect="non-scaling-stroke"  points="-1.1,-1.6 -0.5,-1.6 -0.5,1.1 1.1,1.1 1.1,1.6 -1.1,1.6 " />
</g>
<g transform="matrix(17.08 0 0 17.08 566.44 706.87)"  >
<path style="stroke: none; stroke-width: 1; stroke-dasharray: none; stroke-linecap: butt; stroke-dashoffset: 0; stroke-linejoin: miter; stroke-miterlimit: 4; fill: rgb(255,255,255); fill-rule: nonzero; opacity: 1;" vector-effect="non-scaling-stroke"  transform=" translate(-34.7, -25.2)" d="M 35.5 26.1 L 33.9 26.1 L 33.6 26.8 L 33 26.8 L 34.4 23.6 L 35 23.6 L 36.4 26.8 L 35.8 26.8 L 35.5 26.1 z M 35.3 25.6 L 34.699999999999996 24.200000000000003 L 34.099999999999994 25.6 L 35.3 25.6 z" stroke-linecap="round" />
</g>
<g transform="matrix(17.08 0 0 17.08 656.92 706.87)"  >
<polygon style="stroke: none; stroke-width: 1; stroke-dasharray: none; stroke-linecap: butt; stroke-dashoffset: 0; stroke-linejoin: miter; stroke-miterlimit: 4; fill: rgb(255,255,255); fill-rule: nonzero; opacity: 1;" vector-effect="non-scaling-stroke"  points="1.4,-1.6 1.4,1.6 1,1.6 -0.8,-0.5 -0.8,1.6 -1.4,1.6 -1.4,-1.6 -0.9,-1.6 0.9,0.6 0.9,-1.6 " />
</g>
<g transform="matrix(17.08 0 0 17.08 747.4 706.87)"  >
<polygon style="stroke: none; stroke-width: 1; stroke-dasharray: none; stroke-linecap: butt; stroke-dashoffset: 0; stroke-linejoin: miter; stroke-miterlimit: 4; fill: rgb(255,255,255); fill-rule: nonzero; opacity: 1;" vector-effect="non-scaling-stroke"  points="1.2,1.1 1.2,1.6 -1.2,1.6 -1.2,-1.6 1.1,-1.6 1.1,-1.1 -0.6,-1.1 -0.6,-0.2 0.9,-0.2 0.9,0.2 -0.6,0.2 -0.6,1.1 " />
</g>
<g transform="matrix(17.08 0 0 17.08 837.05 706.87)"  >
<path style="stroke: none; stroke-width: 1; stroke-dasharray: none; stroke-linecap: butt; stroke-dashoffset: 0; stroke-linejoin: miter; stroke-miterlimit: 4; fill: rgb(255,255,255); fill-rule: nonzero; opacity: 1;" vector-effect="non-scaling-stroke"  transform=" translate(-50.55, -25.2)" d="M 49 23.6 L 50.4 23.6 C 50.699999999999996 23.6 51 23.700000000000003 51.3 23.8 C 51.599999999999994 23.900000000000002 51.8 24.1 51.9 24.400000000000002 C 52 24.6 52.1 24.900000000000002 52.1 25.200000000000003 C 52.1 25.500000000000004 52 25.800000000000004 51.9 26.000000000000004 C 51.8 26.200000000000003 51.6 26.400000000000002 51.3 26.600000000000005 C 51 26.700000000000006 50.699999999999996 26.800000000000004 50.4 26.800000000000004 L 49 26.800000000000004 L 49 23.6 z M 50.3 26.3 C 50.5 26.3 50.699999999999996 26.3 50.9 26.2 C 51.1 26.099999999999998 51.199999999999996 26 51.3 25.8 C 51.4 25.6 51.4 25.400000000000002 51.4 25.2 C 51.4 25 51.4 24.8 51.3 24.599999999999998 C 51.199999999999996 24.4 51.099999999999994 24.299999999999997 50.9 24.2 C 50.699999999999996 24.099999999999998 50.5 24.099999999999998 50.3 24.099999999999998 L 49.5 24.099999999999998 L 49.5 26.299999999999997 L 50.3 26.299999999999997 z" stroke-linecap="round" />
</g>
<g transform="matrix(17.08 0 0 17.08 926.69 706.87)"  >
<path style="stroke: none; stroke-width: 1; stroke-dasharray: none; stroke-linecap: butt; stroke-dashoffset: 0; stroke-linejoin: miter; stroke-miterlimit: 4; fill: rgb(255,255,255); fill-rule: nonzero; opacity: 1;" vector-effect="non-scaling-stroke"  transform=" translate(-55.8, -25.2)" d="M 56.6 26.1 L 55 26.1 L 54.7 26.8 L 54.1 26.8 L 55.5 23.6 L 56.1 23.6 L 57.5 26.8 L 56.9 26.8 L 56.6 26.1 z M 56.4 25.6 L 55.8 24.200000000000003 L 55.199999999999996 25.6 L 56.4 25.6 z" stroke-linecap="round" />
</g>
<g transform="matrix(17.08 0 0 17.08 160.12 489.22)"  >
<path style="stroke: rgb(0,0,0); stroke-width: 1; stroke-dasharray: none; stroke-linecap: butt; stroke-dashoffset: 0; stroke-linejoin: miter; stroke-miterlimit: 4; fill: rgb(255,255,255); fill-rule: nonzero; opacity: 1;" vector-effect="non-scaling-stroke"  transform=" translate(-10.9, -12.45)" d="M 12.2 11.2 C 15.1 10.6 17.299999999999997 7.999999999999999 17.299999999999997 4.8999999999999995 L 14.699999999999998 4.8999999999999995 C 14.699999999999998 6.6 13.599999999999998 8 12.199999999999998 8.5 L 12.199999999999998 4.8 L 9.7 4.8 L 9.7 8.5 C 8.1 8 7 6.5 7 4.8 L 4.4 4.8 C 4.4 7.9 6.6000000000000005 10.5 9.5 11.1 L 4.4 11.1 L 4.4 13.7 L 9.600000000000001 13.7 C 6.600000000000001 14.299999999999999 4.400000000000001 16.9 4.400000000000001 20.1 L 7 20.1 C 7 18.400000000000002 8.1 16.900000000000002 9.7 16.400000000000002 L 9.7 20.1 L 12.299999999999999 20.1 L 12.299999999999999 16.5 C 13.799999999999999 17 14.799999999999999 18.5 14.799999999999999 20.1 L 17.4 20.1 C 17.4 17 15.2 14.400000000000002 12.299999999999999 13.8 L 12.299999999999999 13.8 L 17.4 13.8 L 17.4 11.200000000000001 L 12.2 11.2 L 12.2 11.2 z" stroke-linecap="round" />
</g>
<g transform="matrix(0 0 0 0 0 0)"  >
<g style=""   >
</g>
</g>
<g transform="matrix(0 0 0 0 0 0)"  >
<g style=""   >
</g>
</g>
<g transform="matrix(0 0 0 0 0 0)"  >
<g style=""   >
</g>
</g>
<g transform="matrix(0 0 0 0 0 0)"  >
<g style=""   >
</g>
</g>
<g transform="matrix(0 0 0 0 0 0)"  >
<g style=""   >
</g>
</g>
<g transform="matrix(0 0 0 0 0 0)"  >
<g style=""   >
</g>
</g>
</svg>