<svg xmlns="http://www.w3.org/2000/svg" xmlns:xlink="http://www.w3.org/1999/xlink" zoomAndPan="magnify" preserveAspectRatio="xMidYMid meet" version="1.0" viewBox="361.8 212.87 300.38 139.75"><defs><g/></defs><g fill="#000000" fill-opacity="1"><g transform="translate(354.606219, 323.986852)"><g><path d="M 48.359375 2.304688 C 65.488281 2.304688 79.304688 -10.074219 79.304688 -27.203125 C 79.304688 -37.855469 73.835938 -47.351562 65.488281 -52.820312 C 70.527344 -58.148438 73.402344 -65.34375 73.691406 -73.117188 C 74.125 -89.667969 60.304688 -103.339844 37.277344 -102.191406 L 9.210938 -100.75 L 7.195312 0.574219 C 10.21875 0.71875 37.421875 2.304688 48.359375 2.304688 Z M 40.875 -69.660156 C 39.292969 -69.660156 37.710938 -70.09375 36.414062 -70.8125 L 36.125 -87.367188 C 37.566406 -88.230469 39.148438 -88.660156 40.875 -88.660156 C 46.058594 -88.660156 50.375 -84.34375 50.375 -79.160156 C 50.375 -73.835938 46.058594 -69.660156 40.875 -69.660156 Z M 44.042969 -24.179688 C 41.59375 -24.179688 39.292969 -24.898438 37.421875 -26.050781 L 36.988281 -46.777344 C 39.003906 -48.214844 41.453125 -48.9375 44.042969 -48.9375 C 50.808594 -48.9375 56.421875 -43.464844 56.421875 -36.558594 C 56.421875 -29.648438 50.808594 -24.179688 44.042969 -24.179688 Z M 44.042969 -24.179688 "/></g></g></g><g fill="#000000" fill-opacity="1"><g transform="translate(439.668667, 323.986852)"><g><path d="M 37.710938 -2.878906 L 35.695312 -111.113281 L 9.929688 -107.515625 L 7.195312 5.324219 Z M 37.710938 -2.878906 "/></g></g></g><g fill="#000000" fill-opacity="1"><g transform="translate(484.574731, 323.986852)"><g><path d="M 43.753906 2.015625 C 64.625 2.015625 81.609375 -14.96875 81.609375 -35.984375 C 81.609375 -56.996094 64.625 -73.980469 43.753906 -73.980469 C 22.742188 -73.980469 5.757812 -56.996094 5.757812 -35.984375 C 5.757812 -14.96875 22.742188 2.015625 43.753906 2.015625 Z M 47.496094 -24.46875 C 38.859375 -24.46875 31.953125 -31.375 31.953125 -39.867188 C 31.953125 -48.503906 38.859375 -55.414062 47.496094 -55.414062 C 55.988281 -55.414062 62.898438 -48.503906 62.898438 -39.867188 C 62.898438 -31.375 55.988281 -24.46875 47.496094 -24.46875 Z M 47.496094 -24.46875 "/></g></g></g><g fill="#000000" fill-opacity="1"><g transform="translate(571.940037, 323.986852)"><g><path d="M 49.078125 28.640625 C 72.539062 28.640625 85.207031 14.96875 86.933594 -16.695312 L 90.242188 -74.988281 L 61.746094 -72.972656 L 61.746094 -68.65625 C 56.277344 -71.820312 49.945312 -73.691406 43.035156 -73.691406 C 22.453125 -73.691406 5.757812 -56.996094 5.757812 -36.414062 C 5.757812 -15.832031 22.453125 0.863281 43.035156 0.863281 C 49.945312 0.863281 56.421875 -1.007812 61.890625 -4.316406 C 61.890625 8.347656 53.972656 21.445312 42.027344 7.773438 L 24.035156 24.324219 C 29.21875 26.484375 35.40625 28.640625 49.078125 28.640625 Z M 46.632812 -29.21875 C 38.285156 -29.21875 31.519531 -35.984375 31.519531 -44.332031 C 31.519531 -52.679688 38.285156 -59.441406 46.632812 -59.441406 C 54.980469 -59.441406 61.746094 -52.679688 61.746094 -44.332031 C 61.746094 -35.984375 54.980469 -29.21875 46.632812 -29.21875 Z M 46.632812 -29.21875 "/></g></g></g></svg>