<svg xmlns="http://www.w3.org/2000/svg" xmlns:xlink="http://www.w3.org/1999/xlink" zoomAndPan="magnify" preserveAspectRatio="xMidYMid meet" version="1.0" viewBox="124.9 220.65 774.2 106.94"><defs><g/></defs><g fill="#000000" fill-opacity="1"><g transform="translate(119.137652, 323.986852)"><g><path d="M 58.722656 2.589844 C 78.152344 2.589844 95.136719 -7.773438 104.347656 -23.316406 L 88.804688 -28.640625 C 83.910156 -22.597656 76.570312 -18.855469 68.222656 -18.855469 C 53.398438 -18.855469 41.453125 -30.800781 41.453125 -45.625 C 41.453125 -60.449219 53.398438 -72.398438 68.222656 -72.398438 C 75.707031 -72.398438 82.472656 -69.375 87.367188 -64.335938 L 106.941406 -72.253906 C 98.59375 -90.53125 80.167969 -103.339844 58.722656 -103.339844 C 29.503906 -103.339844 5.757812 -79.59375 5.757812 -50.375 C 5.757812 -21.015625 29.503906 2.589844 58.722656 2.589844 Z M 58.722656 2.589844 "/></g></g></g><g fill="#000000" fill-opacity="1"><g transform="translate(231.834599, 323.986852)"><g><path d="M 43.753906 2.015625 C 64.625 2.015625 81.609375 -14.96875 81.609375 -35.984375 C 81.609375 -56.996094 64.625 -73.980469 43.753906 -73.980469 C 22.742188 -73.980469 5.757812 -56.996094 5.757812 -35.984375 C 5.757812 -14.96875 22.742188 2.015625 43.753906 2.015625 Z M 47.496094 -24.46875 C 38.859375 -24.46875 31.953125 -31.375 31.953125 -39.867188 C 31.953125 -48.503906 38.859375 -55.414062 47.496094 -55.414062 C 55.988281 -55.414062 62.898438 -48.503906 62.898438 -39.867188 C 62.898438 -31.375 55.988281 -24.46875 47.496094 -24.46875 Z M 47.496094 -24.46875 "/></g></g></g><g fill="#000000" fill-opacity="1"><g transform="translate(319.199916, 323.986852)"><g><path d="M 38.71875 -4.894531 L 37.421875 -43.898438 C 37.277344 -49.945312 42.171875 -53.972656 48.648438 -53.972656 C 55.988281 -53.972656 59.011719 -48.214844 59.011719 -41.308594 L 58.578125 3.597656 L 90.101562 0.144531 L 86.070312 -46.921875 C 84.488281 -65.054688 73.691406 -74.269531 57.285156 -74.269531 C 49.367188 -74.269531 42.171875 -71.246094 36.847656 -66.207031 L 36.703125 -71.964844 L 9.355469 -75.707031 L 7.195312 3.597656 Z M 38.71875 -4.894531 "/></g></g></g><g fill="#000000" fill-opacity="1"><g transform="translate(416.496376, 323.986852)"><g><path d="M 52.390625 1.007812 C 57.140625 1.007812 63.042969 -0.289062 68.367188 -2.734375 L 56.996094 -21.15625 C 51.09375 -17.703125 43.035156 -22.019531 43.324219 -31.664062 L 44.042969 -52.535156 L 57.285156 -51.957031 L 66.0625 -74.125 L 44.617188 -72.539062 L 45.335938 -94.417969 L 14.394531 -89.523438 L 15.113281 -70.527344 L 5.757812 -69.949219 L 7.773438 -53.972656 L 15.6875 -53.6875 L 16.265625 -33.105469 C 16.839844 -11.945312 31.234375 1.007812 52.390625 1.007812 Z M 52.390625 1.007812 "/></g></g></g><g fill="#000000" fill-opacity="1"><g transform="translate(490.620155, 323.986852)"><g><path d="M 77.289062 -46.632812 C 76.425781 -61.171875 64.769531 -73.117188 43.179688 -73.117188 C 32.097656 -73.117188 19.429688 -68.511719 12.523438 -60.882812 L 23.316406 -52.246094 C 26.339844 -54.691406 30.226562 -56.277344 34.398438 -56.277344 C 42.460938 -56.277344 49.367188 -50.808594 51.382812 -43.324219 C 47.066406 -46.777344 42.171875 -48.9375 35.550781 -48.9375 C 22.597656 -48.9375 5.757812 -41.59375 5.757812 -23.890625 C 5.757812 -6.476562 21.445312 1.007812 34.542969 1.007812 C 41.738281 1.007812 47.351562 -1.152344 51.671875 -4.894531 L 51.527344 -1.296875 L 80.3125 3.308594 Z M 42.890625 -12.664062 C 37.996094 -12.664062 34.113281 -16.550781 34.113281 -21.445312 C 34.113281 -26.195312 37.996094 -30.082031 42.890625 -30.082031 C 47.640625 -30.082031 51.527344 -26.195312 51.527344 -21.445312 C 51.527344 -16.550781 47.640625 -12.664062 42.890625 -12.664062 Z M 42.890625 -12.664062 "/></g></g></g><g fill="#000000" fill-opacity="1"><g transform="translate(578.129415, 323.986852)"><g><path d="M 43.753906 1.871094 C 59.15625 1.871094 72.539062 -7.339844 78.441406 -20.582031 L 62.609375 -24.757812 C 60.164062 -20.292969 55.269531 -17.128906 49.800781 -17.128906 C 41.59375 -17.128906 35.117188 -23.75 35.117188 -31.808594 C 35.117188 -39.867188 41.59375 -46.488281 49.800781 -46.488281 C 54.117188 -46.488281 58.003906 -44.617188 60.738281 -41.59375 L 77.722656 -52.964844 C 71.53125 -65.488281 58.578125 -73.980469 43.753906 -73.980469 C 22.742188 -73.980469 5.757812 -56.996094 5.757812 -36.125 C 5.757812 -15.113281 22.742188 1.871094 43.753906 1.871094 Z M 43.753906 1.871094 "/></g></g></g><g fill="#000000" fill-opacity="1"><g transform="translate(662.328278, 323.986852)"><g><path d="M 52.390625 1.007812 C 57.140625 1.007812 63.042969 -0.289062 68.367188 -2.734375 L 56.996094 -21.15625 C 51.09375 -17.703125 43.035156 -22.019531 43.324219 -31.664062 L 44.042969 -52.535156 L 57.285156 -51.957031 L 66.0625 -74.125 L 44.617188 -72.539062 L 45.335938 -94.417969 L 14.394531 -89.523438 L 15.113281 -70.527344 L 5.757812 -69.949219 L 7.773438 -53.972656 L 15.6875 -53.6875 L 16.265625 -33.105469 C 16.839844 -11.945312 31.234375 1.007812 52.390625 1.007812 Z M 52.390625 1.007812 "/></g></g></g><g fill="#000000" fill-opacity="1"><g transform="translate(736.452057, 323.986852)"><g><path d="M 43.753906 2.015625 C 64.625 2.015625 81.609375 -14.96875 81.609375 -35.984375 C 81.609375 -56.996094 64.625 -73.980469 43.753906 -73.980469 C 22.742188 -73.980469 5.757812 -56.996094 5.757812 -35.984375 C 5.757812 -14.96875 22.742188 2.015625 43.753906 2.015625 Z M 47.496094 -24.46875 C 38.859375 -24.46875 31.953125 -31.375 31.953125 -39.867188 C 31.953125 -48.503906 38.859375 -55.414062 47.496094 -55.414062 C 55.988281 -55.414062 62.898438 -48.503906 62.898438 -39.867188 C 62.898438 -31.375 55.988281 -24.46875 47.496094 -24.46875 Z M 47.496094 -24.46875 "/></g></g></g><g fill="#000000" fill-opacity="1"><g transform="translate(823.817374, 323.986852)"><g><path d="M 39.4375 2.589844 C 57.859375 2.589844 75.273438 -3.742188 75.273438 -21.445312 C 75.273438 -48.503906 31.089844 -43.898438 32.527344 -55.699219 C 33.246094 -61.746094 49.222656 -67.359375 58.148438 -57.285156 L 67.070312 -69.230469 C 48.792969 -79.160156 14.824219 -77.433594 11.515625 -57.570312 C 6.765625 -28.929688 41.738281 -31.953125 41.738281 -18.566406 C 41.738281 -10.363281 20.292969 -10.652344 18.421875 -19.863281 L 5.757812 -4.175781 C 13.816406 -0.289062 26.769531 2.589844 39.4375 2.589844 Z M 39.4375 2.589844 "/></g></g></g></svg>