<svg xmlns="http://www.w3.org/2000/svg" xmlns:xlink="http://www.w3.org/1999/xlink" zoomAndPan="magnify" preserveAspectRatio="xMidYMid meet" version="1.0" viewBox="82.51 217.77 858.98 112.55"><defs><g/></defs><g fill="#000000" fill-opacity="1"><g transform="translate(75.316267, 323.986852)"><g><path d="M 37.855469 -0.863281 L 37.132812 -38.859375 L 61.171875 -37.996094 L 60.164062 2.160156 L 90.820312 4.316406 L 88.949219 -102.621094 L 62.753906 -100.75 L 61.746094 -58.578125 L 36.703125 -57.570312 L 35.839844 -102.621094 L 9.789062 -100.75 L 7.195312 6.332031 Z M 37.855469 -0.863281 "/></g></g></g><g fill="#000000" fill-opacity="1"><g transform="translate(173.332381, 323.986852)"><g><path d="M 34.542969 -24.46875 L 59.011719 -23.460938 L 65.488281 3.023438 L 96.289062 -1.4375 L 65.777344 -102.335938 L 42.027344 -106.21875 L 5.757812 -4.894531 L 25.761719 3.023438 Z M 48.074219 -67.503906 L 55.125 -39.148438 L 39.003906 -38.574219 Z M 48.074219 -67.503906 "/></g></g></g><g fill="#000000" fill-opacity="1"><g transform="translate(275.378532, 323.986852)"><g><path d="M 71.53125 -0.433594 L 69.519531 -21.015625 L 37.566406 -17.847656 L 35.984375 -102.191406 L 9.789062 -104.347656 L 7.195312 1.726562 Z M 71.53125 -0.433594 "/></g></g></g><g fill="#000000" fill-opacity="1"><g transform="translate(352.668765, 323.986852)"><g><path d="M 71.53125 -0.433594 L 69.519531 -21.015625 L 37.566406 -17.847656 L 35.984375 -102.191406 L 9.789062 -104.347656 L 7.195312 1.726562 Z M 71.53125 -0.433594 "/></g></g></g><g fill="#000000" fill-opacity="1"><g transform="translate(429.958998, 323.986852)"><g><path d="M 58.722656 2.589844 C 87.941406 2.589844 111.691406 -21.015625 111.691406 -50.375 C 111.691406 -79.59375 87.941406 -103.339844 58.722656 -103.339844 C 29.503906 -103.339844 5.757812 -79.59375 5.757812 -50.375 C 5.757812 -21.015625 29.503906 2.589844 58.722656 2.589844 Z M 53.109375 -29.792969 C 38.285156 -29.792969 26.339844 -41.738281 26.339844 -56.5625 C 26.339844 -71.390625 38.285156 -83.335938 53.109375 -83.335938 C 67.789062 -83.335938 79.882812 -71.390625 79.882812 -56.5625 C 79.882812 -41.738281 67.789062 -29.792969 53.109375 -29.792969 Z M 53.109375 -29.792969 "/></g></g></g><g fill="#000000" fill-opacity="1"><g transform="translate(547.405626, 323.986852)"><g><path d="M 53.253906 0 L 71.964844 -56.5625 L 88.804688 -1.296875 L 108.8125 0.71875 L 141.625 -103.199219 L 120.902344 -102.191406 L 104.636719 -40.445312 L 90.964844 -102.191406 L 65.777344 -105.210938 L 48.9375 -40.589844 L 34.542969 -105.210938 L 2.878906 -100.175781 L 34.398438 2.734375 Z M 53.253906 0 "/></g></g></g><g fill="#000000" fill-opacity="1"><g transform="translate(691.911006, 323.986852)"><g><path d="M 77.722656 -20.4375 L 37.566406 -16.839844 L 36.988281 -43.898438 L 60.449219 -42.027344 L 68.941406 -62.464844 L 36.703125 -61.171875 L 36.125 -87.222656 L 70.09375 -84.34375 L 67.648438 -103.773438 L 9.789062 -101.328125 L 7.195312 0 L 68.65625 2.015625 Z M 77.722656 -20.4375 "/></g></g></g><g fill="#000000" fill-opacity="1"><g transform="translate(775.390249, 323.986852)"><g><path d="M 77.722656 -20.4375 L 37.566406 -16.839844 L 36.988281 -43.898438 L 60.449219 -42.027344 L 68.941406 -62.464844 L 36.703125 -61.171875 L 36.125 -87.222656 L 70.09375 -84.34375 L 67.648438 -103.773438 L 9.789062 -101.328125 L 7.195312 0 L 68.65625 2.015625 Z M 77.722656 -20.4375 "/></g></g></g><g fill="#000000" fill-opacity="1"><g transform="translate(858.869493, 323.986852)"><g><path d="M 27.203125 -3.023438 L 24.898438 -60.164062 L 64.625 3.023438 L 80.167969 0 L 82.617188 -99.742188 L 62.609375 -103.339844 L 63.617188 -47.066406 L 37.132812 -100.464844 L 9.210938 -104.347656 L 7.195312 1.871094 Z M 27.203125 -3.023438 "/></g></g></g></svg>