<svg xmlns="http://www.w3.org/2000/svg" xmlns:xlink="http://www.w3.org/1999/xlink" zoomAndPan="magnify" preserveAspectRatio="xMidYMid meet" version="1.0" viewBox="316.18 215.03 393.07 112.98"><defs><g/></defs><g fill="#000000" fill-opacity="1"><g transform="translate(308.983954, 323.986852)"><g><path d="M 35.261719 -102.910156 L 9.066406 -100.75 L 7.195312 -1.726562 L 37.855469 4.03125 Z M 35.261719 -102.910156 "/></g></g></g><g fill="#000000" fill-opacity="1"><g transform="translate(354.03395, 323.986852)"><g><path d="M 38.71875 -4.894531 L 37.421875 -43.898438 C 37.277344 -49.945312 42.171875 -53.972656 48.648438 -53.972656 C 55.988281 -53.972656 59.011719 -48.214844 59.011719 -41.308594 L 58.578125 3.597656 L 90.101562 0.144531 L 86.070312 -46.921875 C 84.488281 -65.054688 73.691406 -74.269531 57.285156 -74.269531 C 49.367188 -74.269531 42.171875 -71.246094 36.847656 -66.207031 L 36.703125 -71.964844 L 9.355469 -75.707031 L 7.195312 3.597656 Z M 38.71875 -4.894531 "/></g></g></g><g fill="#000000" fill-opacity="1"><g transform="translate(451.33042, 323.986852)"><g><path d="M 23.605469 -78.585938 C 32.097656 -78.585938 38.859375 -85.351562 38.859375 -93.699219 C 38.859375 -102.191406 32.097656 -108.953125 23.605469 -108.953125 C 15.257812 -108.953125 8.347656 -102.191406 8.347656 -93.699219 C 8.347656 -85.351562 15.257812 -78.585938 23.605469 -78.585938 Z M 38.859375 -4.175781 L 36.703125 -75.851562 L 9.5 -71.964844 L 7.195312 3.886719 Z M 38.859375 -4.175781 "/></g></g></g><g fill="#000000" fill-opacity="1"><g transform="translate(497.387919, 323.986852)"><g><path d="M 43.753906 1.871094 C 59.15625 1.871094 72.539062 -7.339844 78.441406 -20.582031 L 62.609375 -24.757812 C 60.164062 -20.292969 55.269531 -17.128906 49.800781 -17.128906 C 41.59375 -17.128906 35.117188 -23.75 35.117188 -31.808594 C 35.117188 -39.867188 41.59375 -46.488281 49.800781 -46.488281 C 54.117188 -46.488281 58.003906 -44.617188 60.738281 -41.59375 L 77.722656 -52.964844 C 71.53125 -65.488281 58.578125 -73.980469 43.753906 -73.980469 C 22.742188 -73.980469 5.757812 -56.996094 5.757812 -36.125 C 5.757812 -15.113281 22.742188 1.871094 43.753906 1.871094 Z M 43.753906 1.871094 "/></g></g></g><g fill="#000000" fill-opacity="1"><g transform="translate(581.586771, 323.986852)"><g><path d="M 23.605469 -78.585938 C 32.097656 -78.585938 38.859375 -85.351562 38.859375 -93.699219 C 38.859375 -102.191406 32.097656 -108.953125 23.605469 -108.953125 C 15.257812 -108.953125 8.347656 -102.191406 8.347656 -93.699219 C 8.347656 -85.351562 15.257812 -78.585938 23.605469 -78.585938 Z M 38.859375 -4.175781 L 36.703125 -75.851562 L 9.5 -71.964844 L 7.195312 3.886719 Z M 38.859375 -4.175781 "/></g></g></g><g fill="#000000" fill-opacity="1"><g transform="translate(627.644271, 323.986852)"><g><path d="M 43.753906 2.015625 C 64.625 2.015625 81.609375 -14.96875 81.609375 -35.984375 C 81.609375 -56.996094 64.625 -73.980469 43.753906 -73.980469 C 22.742188 -73.980469 5.757812 -56.996094 5.757812 -35.984375 C 5.757812 -14.96875 22.742188 2.015625 43.753906 2.015625 Z M 47.496094 -24.46875 C 38.859375 -24.46875 31.953125 -31.375 31.953125 -39.867188 C 31.953125 -48.503906 38.859375 -55.414062 47.496094 -55.414062 C 55.988281 -55.414062 62.898438 -48.503906 62.898438 -39.867188 C 62.898438 -31.375 55.988281 -24.46875 47.496094 -24.46875 Z M 47.496094 -24.46875 "/></g></g></g></svg>