<svg xmlns="http://www.w3.org/2000/svg" xmlns:xlink="http://www.w3.org/1999/xlink" zoomAndPan="magnify" preserveAspectRatio="xMidYMid meet" version="1.0" viewBox="115.9 220.21 793.63 108.52"><defs><g/></defs><g fill="#000000" fill-opacity="1"><g transform="translate(108.705731, 323.986852)"><g><path d="M 111.976562 -100.75 L 81.753906 -103.773438 L 61.601562 -39.003906 L 43.609375 -100.464844 L 9.210938 -103.628906 L 7.195312 2.734375 L 27.058594 -3.597656 L 25.1875 -57.429688 L 44.042969 -3.023438 L 64.914062 2.304688 L 84.917969 -58.292969 L 83.765625 -2.445312 L 114.566406 4.75 Z M 111.976562 -100.75 "/></g></g></g><g fill="#000000" fill-opacity="1"><g transform="translate(230.470248, 323.986852)"><g><path d="M 43.753906 2.015625 C 64.625 2.015625 81.609375 -14.96875 81.609375 -35.984375 C 81.609375 -56.996094 64.625 -73.980469 43.753906 -73.980469 C 22.742188 -73.980469 5.757812 -56.996094 5.757812 -35.984375 C 5.757812 -14.96875 22.742188 2.015625 43.753906 2.015625 Z M 47.496094 -24.46875 C 38.859375 -24.46875 31.953125 -31.375 31.953125 -39.867188 C 31.953125 -48.503906 38.859375 -55.414062 47.496094 -55.414062 C 55.988281 -55.414062 62.898438 -48.503906 62.898438 -39.867188 C 62.898438 -31.375 55.988281 -24.46875 47.496094 -24.46875 Z M 47.496094 -24.46875 "/></g></g></g><g fill="#000000" fill-opacity="1"><g transform="translate(317.835577, 323.986852)"><g><path d="M 38.71875 -4.894531 L 37.421875 -43.898438 C 37.277344 -49.945312 42.171875 -53.972656 48.648438 -53.972656 C 55.988281 -53.972656 59.011719 -48.214844 59.011719 -41.308594 L 58.578125 3.597656 L 90.101562 0.144531 L 86.070312 -46.921875 C 84.488281 -65.054688 73.691406 -74.269531 57.285156 -74.269531 C 49.367188 -74.269531 42.171875 -71.246094 36.847656 -66.207031 L 36.703125 -71.964844 L 9.355469 -75.707031 L 7.195312 3.597656 Z M 38.71875 -4.894531 "/></g></g></g><g fill="#000000" fill-opacity="1"><g transform="translate(415.132036, 323.986852)"><g><path d="M 39.4375 2.589844 C 57.859375 2.589844 75.273438 -3.742188 75.273438 -21.445312 C 75.273438 -48.503906 31.089844 -43.898438 32.527344 -55.699219 C 33.246094 -61.746094 49.222656 -67.359375 58.148438 -57.285156 L 67.070312 -69.230469 C 48.792969 -79.160156 14.824219 -77.433594 11.515625 -57.570312 C 6.765625 -28.929688 41.738281 -31.953125 41.738281 -18.566406 C 41.738281 -10.363281 20.292969 -10.652344 18.421875 -19.863281 L 5.757812 -4.175781 C 13.816406 -0.289062 26.769531 2.589844 39.4375 2.589844 Z M 39.4375 2.589844 "/></g></g></g><g fill="#000000" fill-opacity="1"><g transform="translate(496.164446, 323.986852)"><g><path d="M 52.390625 1.007812 C 57.140625 1.007812 63.042969 -0.289062 68.367188 -2.734375 L 56.996094 -21.15625 C 51.09375 -17.703125 43.035156 -22.019531 43.324219 -31.664062 L 44.042969 -52.535156 L 57.285156 -51.957031 L 66.0625 -74.125 L 44.617188 -72.539062 L 45.335938 -94.417969 L 14.394531 -89.523438 L 15.113281 -70.527344 L 5.757812 -69.949219 L 7.773438 -53.972656 L 15.6875 -53.6875 L 16.265625 -33.105469 C 16.839844 -11.945312 31.234375 1.007812 52.390625 1.007812 Z M 52.390625 1.007812 "/></g></g></g><g fill="#000000" fill-opacity="1"><g transform="translate(570.288225, 323.986852)"><g><path d="M 36.703125 -46.203125 C 36.414062 -53.398438 40.875 -56.851562 47.351562 -56.851562 C 52.964844 -56.851562 56.421875 -53.109375 58.148438 -48.503906 L 75.996094 -70.238281 C 70.09375 -73.980469 63.183594 -76.140625 55.699219 -76.140625 C 47.785156 -76.140625 41.164062 -74.125 36.125 -70.382812 L 35.984375 -76.859375 L 8.921875 -69.804688 L 7.195312 -4.605469 L 37.996094 0.144531 Z M 36.703125 -46.203125 "/></g></g></g><g fill="#000000" fill-opacity="1"><g transform="translate(649.161685, 323.986852)"><g><path d="M 90.53125 -71.964844 L 58.867188 -76.425781 L 60.164062 -34.113281 C 60.449219 -24.179688 54.835938 -19.863281 48.359375 -19.863281 C 41.019531 -19.863281 38.574219 -25.621094 38.71875 -32.671875 L 39.148438 -75.707031 L 7.195312 -70.667969 L 13.242188 -26.914062 C 15.6875 -8.921875 24.035156 0.433594 40.445312 0.433594 C 48.359375 0.433594 55.558594 -2.734375 60.882812 -7.773438 L 61.027344 -1.871094 L 88.371094 1.726562 Z M 90.53125 -71.964844 "/></g></g></g><g fill="#000000" fill-opacity="1"><g transform="translate(746.889925, 323.986852)"><g><path d="M 43.753906 2.015625 C 64.625 2.015625 81.609375 -14.96875 81.609375 -35.984375 C 81.609375 -56.996094 64.625 -73.980469 43.753906 -73.980469 C 22.742188 -73.980469 5.757812 -56.996094 5.757812 -35.984375 C 5.757812 -14.96875 22.742188 2.015625 43.753906 2.015625 Z M 47.496094 -24.46875 C 38.859375 -24.46875 31.953125 -31.375 31.953125 -39.867188 C 31.953125 -48.503906 38.859375 -55.414062 47.496094 -55.414062 C 55.988281 -55.414062 62.898438 -48.503906 62.898438 -39.867188 C 62.898438 -31.375 55.988281 -24.46875 47.496094 -24.46875 Z M 47.496094 -24.46875 "/></g></g></g><g fill="#000000" fill-opacity="1"><g transform="translate(834.255242, 323.986852)"><g><path d="M 39.4375 2.589844 C 57.859375 2.589844 75.273438 -3.742188 75.273438 -21.445312 C 75.273438 -48.503906 31.089844 -43.898438 32.527344 -55.699219 C 33.246094 -61.746094 49.222656 -67.359375 58.148438 -57.285156 L 67.070312 -69.230469 C 48.792969 -79.160156 14.824219 -77.433594 11.515625 -57.570312 C 6.765625 -28.929688 41.738281 -31.953125 41.738281 -18.566406 C 41.738281 -10.363281 20.292969 -10.652344 18.421875 -19.863281 L 5.757812 -4.175781 C 13.816406 -0.289062 26.769531 2.589844 39.4375 2.589844 Z M 39.4375 2.589844 "/></g></g></g></svg>